# xmcd
#
# Track frame offsets:
#	150
#	10755
#	23300
#	34115
#	46812
#	58957
#	84295
#	102290
#	116742
#	136437
#	157552
#	176437
#	191002
#	203892
#	220330
#	238510
#	251990
#	266540
#	282132
#	296350
#
# Disc length: 4138 seconds
#
# Revision: 4
# Processed by: cddbd v1.5.2PL0 Copyright (c) Steve Scherf et al.
# Submitted via: audiograbber 1.83.01
#
DISCID=0f102814
DTITLE=Milena Soukupova - DAREK Mileny k Mileniu
DYEAR=2000
DGENRE=Country
TTITLE0=Milena Soukupova - Vylepsi si rano kavou
TTITLE1=Milena Soukupova - Zlatej dul
TTITLE2=Milena Soukupova - Zivot je zmena
TTITLE3=Milena Soukupova - Malo dni
TTITLE4=Milena Soukupova - Usvit je fer
TTITLE5=Milena Soukupova - Pry vsechno zahoji cas
TTITLE6=Milena Soukupova - Neutikam pred vzpominkou
TTITLE7=Milena Soukupova - Tri kamaradi
TTITLE8=Milena Soukupova - Je neco vic
TTITLE9=Milena Soukupova - Favorit
TTITLE10=Milena Soukupova - Jsi v konskym raji
TTITLE11=Milena Soukupova - Nehledej mou adresu
TTITLE12=Milena Soukupova - Rikam Good Bye
TTITLE13=Milena Soukupova - Hnizdecko lasky
TTITLE14=Milena Soukupova - O dve delky driv
TTITLE15=Milena Soukupova - At rozhodne to vitr
TTITLE16=Milena Soukupova - Dve svicky
TTITLE17=Milena Soukupova - Mesic sviti stribrny
TTITLE18=Milena Soukupova - Mam skvelej den
TTITLE19=Milena Soukupova - Country kolotoc
EXTD=YEAR: 2000
EXTT0=
EXTT1=
EXTT2=
EXTT3=
EXTT4=
EXTT5=
EXTT6=
EXTT7=
EXTT8=
EXTT9=
EXTT10=
EXTT11=
EXTT12=
EXTT13=
EXTT14=
EXTT15=
EXTT16=
EXTT17=
EXTT18=
EXTT19=
PLAYORDER=
